<svg aria-hidden="true" style="width:0;height:0;position:absolute;overflow:hidden" xmlns="http://www.w3.org/2000/svg"><defs><symbol id="icon-file" viewBox="0 0 28 32"><path fill="#fff" style="fill:var(--color1,#fff)" d="M5.197 22.047H-.005l6.643 6.689v-5.223a1.47 1.47 0 0 0-1.442-1.467z"/><path fill="#fff" style="fill:var(--color1,#fff)" d="M20.104.164H1.436A1.458 1.458 0 0 0-.005 1.631v19.046h5.202a2.845 2.845 0 0 1 2.842 2.842v5.218h6.367a7.497 7.497 0 0 1-.552-2.841 7.667 7.667 0 0 1 7.666-7.63h.072V1.632A1.467 1.467 0 0 0 20.104.165zm-1.773 16.123H3.21a.693.693 0 0 1-.526-.179.689.689 0 0 1 0-1.018.688.688 0 0 1 .526-.179h15.127a.693.693 0 0 1 .526.179.689.689 0 0 1 0 1.018.688.688 0 0 1-.526.179h-.005zm0-4.124H3.21a.693.693 0 0 1-.526-.179.689.689 0 0 1 0-1.018.688.688 0 0 1 .526-.179h15.127a.693.693 0 0 1 .526.179.689.689 0 0 1 0 1.018.688.688 0 0 1-.526.179h-.005zm0-4.129H3.21a.693.693 0 0 1-.526-.179.689.689 0 0 1 0-1.018.688.688 0 0 1 .526-.179h15.127a.693.693 0 0 1 .526.179.689.689 0 0 1 0 1.018.688.688 0 0 1-.526.179h-.005zm0-4.124H3.21a.693.693 0 0 1-.526-.179.689.689 0 0 1 0-1.018.688.688 0 0 1 .526-.179h15.127a.693.693 0 0 1 .526.179.689.689 0 0 1 0 1.018.688.688 0 0 1-.526.179h-.005z"/><path fill="#fff" style="fill:var(--color1,#fff)" d="M21.576 19.798h-.072a6.131 6.131 0 0 0-6.133 6.097 5.99 5.99 0 0 0 .71 2.841 6.107 6.107 0 0 0 5.196 3.261 6.108 6.108 0 0 0 5.405-2.903 6.106 6.106 0 0 0-2.052-8.423 6.095 6.095 0 0 0-3.055-.873zm-2.187 9.199-2.019-1.988a.827.827 0 0 1 0-1.166.827.827 0 0 1 1.166 0l1.41 1.41 4.482-4.472a.828.828 0 0 1 1.17 0 .826.826 0 0 1 0 1.166l-5.059 5.059a.827.827 0 0 1-1.155-.005l.005-.005z"/></symbol><symbol id="icon-money" viewBox="0 0 31 32"><path fill="#fff" style="fill:var(--color1,#fff)" d="M16.01 7.422c-4.812 0-8.7 3.889-8.7 8.7s3.889 8.7 8.7 8.7 8.7-3.889 8.7-8.7c0-4.812-3.889-8.7-8.7-8.7zm2.241 11.798c-.461.395-1.055.593-1.78.659v.791h-.725v-.791a5.268 5.268 0 0 1-2.702-1.186l.791-.989c.593.527 1.252.857 1.911.989v-2.109c-.857-.198-1.45-.461-1.846-.791-.33-.33-.527-.857-.527-1.45 0-.659.198-1.12.659-1.582.461-.395.989-.593 1.714-.659v-.527h.725v.593c.791.066 1.582.33 2.307.857l-.725.989c-.461-.33-.989-.527-1.582-.659v2.043c.857.198 1.45.461 1.846.791s.593.857.593 1.45c.066.659-.198 1.186-.659 1.582z"/><path fill="#fff" style="fill:var(--color1,#fff)" d="M14.691 14.211c0 .264.066.461.198.593s.396.264.857.395v-1.911c-.33 0-.593.132-.791.264-.132.198-.264.395-.264.659zM16.471 16.715v1.977c.33-.066.659-.132.857-.33s.33-.395.33-.659-.066-.461-.264-.593-.461-.264-.923-.395zM3.091 15.331A12.948 12.948 0 0 1 6.98 6.828c5.009-4.878 12.985-4.878 17.994-.066l-1.318-.198c-.725-.066-1.318.396-1.45 1.055-.066.659.395 1.318 1.055 1.45l4.482.593h.198c.264 0 .527-.066.791-.264s.461-.527.461-.857l.593-4.482c.066-.725-.395-1.318-1.055-1.45-.725-.066-1.318.395-1.45 1.055l-.198 1.516C24.183 2.214 20.36.566 16.208.5 12.121.566 8.167 2.148 5.201 5.048a15.696 15.696 0 0 0-4.68 10.15c-.066.725.461 1.318 1.186 1.318h.066a1.3 1.3 0 0 0 1.318-1.186zM30.312 15.727c-.659-.066-1.318.461-1.318 1.186a12.948 12.948 0 0 1-3.889 8.503c-5.075 4.878-13.051 4.878-18.06 0l1.45.132a1.263 1.263 0 0 0 1.384-1.12 1.263 1.263 0 0 0-1.12-1.384l-4.614-.461c-.33-.066-.659.066-.923.264s-.395.527-.461.857L2.3 28.186a1.263 1.263 0 0 0 1.12 1.384h.132c.659 0 1.186-.461 1.252-1.12L4.936 27c3.032 3.098 7.053 4.614 11.007 4.614 3.889 0 7.778-1.45 10.81-4.35a15.696 15.696 0 0 0 4.68-10.15 1.263 1.263 0 0 0-1.12-1.384z"/></symbol><symbol id="icon-folder" viewBox="0 0 26 32"><path fill="#fff" style="fill:var(--color1,#fff)" d="M17.6 9.6h7.04L16 .96V8c0 .96.64 1.6 1.6 1.6zm0 3.2c-2.72 0-4.8-2.08-4.8-4.8V0h-8C2.08 0 0 2.08 0 4.8v22.4C0 29.92 2.08 32 4.8 32h16c2.72 0 4.8-2.08 4.8-4.8V12.8h-8zM8 9.6h1.6c.96 0 1.6.64 1.6 1.6s-.64 1.6-1.6 1.6H8c-.96 0-1.6-.64-1.6-1.6S7.04 9.6 8 9.6zm9.6 16H8c-.96 0-1.6-.64-1.6-1.6s.64-1.6 1.6-1.6h9.6c.96 0 1.6.64 1.6 1.6s-.64 1.6-1.6 1.6zm0-6.4H8c-.96 0-1.6-.64-1.6-1.6S7.04 16 8 16h9.6c.96 0 1.6.64 1.6 1.6s-.64 1.6-1.6 1.6z"/></symbol><symbol id="icon-backet" viewBox="0 0 35 32"><path fill="#fff" style="fill:var(--color1,#fff)" d="M0 1.778C0 .796.779 0 1.739 0h3.478c.81 0 1.513.571 1.695 1.378l4.906 21.733h14.65l4.348-17.778H17.391c-.96 0-1.739-.796-1.739-1.778s.779-1.778 1.739-1.778h15.652c.535 0 1.041.252 1.371.684s.446.994.316 1.525l-5.217 21.333a1.747 1.747 0 0 1-1.687 1.347H10.435c-.81 0-1.512-.571-1.695-1.378L3.834 3.555H1.739C.778 3.555 0 2.759 0 1.777zm13.913 1.778c0 .982-.779 1.778-1.739 1.778s-1.739-.796-1.739-1.778.779-1.778 1.739-1.778c.961 0 1.739.796 1.739 1.778zm6.957 7.111c0-.982-.779-1.778-1.739-1.778s-1.739.796-1.739 1.778v2.819l-.509-.521c-.679-.694-1.78-.694-2.459 0s-.679 1.82 0 2.514l3.478 3.556c.679.694 1.78.694 2.459 0l3.478-3.556c.679-.694.679-1.82 0-2.514s-1.78-.694-2.459 0l-.509.521v-2.819zM12.174 32c.961 0 1.739-.796 1.739-1.778s-.779-1.778-1.739-1.778c-.96 0-1.739.796-1.739 1.778S11.214 32 12.174 32zm15.652-1.778c0 .982-.779 1.778-1.739 1.778s-1.739-.796-1.739-1.778.779-1.778 1.739-1.778 1.739.796 1.739 1.778z"/></symbol><symbol id="icon-arrow" viewBox="0 0 41 32"><path fill="#e1400f" style="fill:var(--color1,#e1400f)" d="M40.114 14.133 22.971.8c-1.371-1.067-3.429-1.067-4.8 0s-1.371 2.667 0 3.733l11.314 8.8H3.428C1.371 13.333-.001 14.4-.001 16s1.371 2.667 3.429 2.667h26.057l-11.314 8.8c-1.371 1.067-1.371 2.666 0 3.733s3.429 1.067 4.8 0l17.143-13.333c1.371-.8 1.371-2.667 0-3.733z"/></symbol><symbol id="icon-menu-open" viewBox="0 0 48 32"><path fill="#fff" style="fill:var(--color1,#fff)" d="M46.925 14.472H3.375c-.587 0-1.179-.005-1.766 0h-.077c-.801 0-1.567.703-1.531 1.528.036.83.674 1.528 1.531 1.528h43.55c.587 0 1.179.005 1.766 0h.077c.801 0 1.567-.703 1.531-1.528-.041-.83-.674-1.528-1.531-1.528zm0-14.47H3.375c-.587 0-1.179-.005-1.766 0h-.077C.731.002-.035.705.001 1.53c.036.83.674 1.528 1.531 1.528h43.55c.587 0 1.179.005 1.766 0h.077c.801 0 1.567-.703 1.531-1.528C48.415.7 47.782.002 46.925.002zm0 28.939H3.375c-.587 0-1.179-.005-1.766 0h-.077c-.801 0-1.567.703-1.531 1.529.036.83.674 1.528 1.531 1.528h43.55c.587 0 1.179.005 1.766 0h.077c.801 0 1.567-.703 1.531-1.528-.041-.83-.674-1.529-1.531-1.529z"/></symbol><symbol id="icon-telephone" viewBox="0 0 32 32"><path fill="#fafafa" style="fill:var(--color1,#fafafa)" d="M30.539 23.218c-1.327-1.364-5.099-3.918-7.572-3.918-.573 0-1.073.127-1.482.391-1.209.773-2.172 1.373-2.636 1.373-.255 0-.527-.227-1.127-.745l-.1-.091c-1.663-1.445-2.018-1.818-2.663-2.491l-.164-.173c-.118-.118-.218-.227-.318-.327-.564-.582-.973-1-2.418-2.636l-.064-.073c-.691-.782-1.145-1.291-1.173-1.664-.027-.364.291-.955 1.1-2.055.982-1.327 1.018-2.964.118-4.864-.718-1.5-1.891-2.936-2.927-4.2l-.091-.109C8.131.545 7.095 0 5.941 0 4.659 0 3.596.691 3.032 1.055c-.045.027-.091.064-.136.091-1.263.8-2.182 1.9-2.527 3.018-.518 1.682-.864 3.864 1.618 8.4 2.145 3.927 4.09 6.564 7.181 9.736 2.909 2.982 4.2 3.945 7.09 6.036C19.476 30.663 22.566 32 24.73 32c2.009 0 3.59 0 5.845-2.718 2.363-2.855 1.382-4.6-.036-6.064z"/></symbol><symbol id="icon-email" viewBox="0 0 45 32"><path fill="#fafafa" style="fill:var(--color1,#fafafa)" d="M13.686 16 0 26.037V5.963L13.686 16zm17.428 0L44.8 26.037V5.963L31.114 16zm-2 1.471-6.119 4.486c-.18.129-.388.197-.595.197s-.415-.068-.595-.197l-6.119-4.486L.05 28.936c.268 1.735 1.612 3.065 3.229 3.065h38.244c1.617 0 2.961-1.323 3.229-3.065l-.863-.628-14.773-10.837zM22.4 19.452 44.751 3.064c-.268-1.742-1.612-3.065-3.229-3.065H3.278C1.661-.001.317 1.328.049 3.064l.858.628L22.4 19.452z"/></symbol><symbol id="icon-location" viewBox="0 0 26 32"><path fill="#fafafa" style="fill:var(--color1,#fafafa)" d="M12.8 0A12.812 12.812 0 0 0 0 12.8c0 5.208 3.781 9.533 7.786 14.11 1.267 1.45 2.579 2.949 3.747 4.466a1.591 1.591 0 0 0 1.267.623 1.6 1.6 0 0 0 1.267-.623c1.168-1.517 2.48-3.016 3.747-4.466 4.005-4.578 7.786-8.902 7.786-14.11A12.812 12.812 0 0 0 12.8 0zm0 17.6a4.799 4.799 0 0 1-.936-9.508 4.803 4.803 0 0 1 4.927 2.041A4.8 4.8 0 0 1 12.8 17.6z"/></symbol></defs></svg>